<svg xmlns="http://www.w3.org/2000/svg"><!-- EnglishQuest illustrations — สร้างโดย scripts/build-graphics.py ห้ามแก้ด้วยมือ -->
<symbol id="il-home" viewBox="0 0 320 240"><title>การเรียนภาษา: หนังสือเปิดกับบทสนทนาสองภาษา</title><path d="M40 120C30 60 90 22 160 26s128 36 124 98-60 96-130 92S48 176 40 120Z" style="fill:var(--il-bg,#EEF0FF)"/><ellipse cx="160" cy="212" rx="104" ry="7" style="fill:var(--il-ground,rgba(31,35,64,0.08))"/><path d="M58 160Q108 142 160 162V214Q108 196 58 210Z" style="fill:var(--il-paper-d,#DDE1EE)"/><path d="M262 160Q212 142 160 162V214Q212 196 262 210Z" style="fill:var(--il-paper-d,#DDE1EE)"/><path d="M58 152Q108 134 160 154V206Q108 188 58 202Z" style="fill:var(--il-paper,#FFFFFF)"/><path d="M262 152Q212 134 160 154V206Q212 188 262 202Z" style="fill:var(--il-paper,#FFFFFF)"/><path d="M160 154V206" style="fill:none;stroke:var(--il-lilac-d,#A5B4FC);stroke-width:3;stroke-linecap:round;stroke-linejoin:round"/><path d="M76 166Q110 156 146 168" style="fill:none;stroke:var(--il-line,#E3E6F0);stroke-width:4;stroke-linecap:round;stroke-linejoin:round"/><path d="M174 168Q210 156 244 166" style="fill:none;stroke:var(--il-line,#E3E6F0);stroke-width:4;stroke-linecap:round;stroke-linejoin:round"/><path d="M76 176Q110 166 146 178" style="fill:none;stroke:var(--il-line,#E3E6F0);stroke-width:4;stroke-linecap:round;stroke-linejoin:round"/><path d="M174 178Q210 166 244 176" style="fill:none;stroke:var(--il-line,#E3E6F0);stroke-width:4;stroke-linecap:round;stroke-linejoin:round"/><path d="M76 186Q110 176 146 188" style="fill:none;stroke:var(--il-line,#E3E6F0);stroke-width:4;stroke-linecap:round;stroke-linejoin:round"/><path d="M174 188Q210 176 244 186" style="fill:none;stroke:var(--il-line,#E3E6F0);stroke-width:4;stroke-linecap:round;stroke-linejoin:round"/><g transform="translate(0 5)"><rect x="52" y="50" width="104" height="52" rx="18" style="fill:var(--il-indigo-d,#3730A3)"/></g><rect x="52" y="50" width="104" height="52" rx="18" style="fill:var(--il-indigo,#4F46E5)"/><path d="M74 100l-4 16 18 -16Z" style="fill:var(--il-indigo,#4F46E5)"/><text x="104" y="84" text-anchor="middle" font-size="22" font-weight="800" font-family="Plus Jakarta Sans, Noto Sans Thai, system-ui, sans-serif" style="fill:var(--il-paper,#FFFFFF)">Hello!</text><g transform="translate(0 5)"><rect x="174" y="82" width="98" height="48" rx="18" style="fill:var(--il-coral-d,#D9541C)"/></g><rect x="174" y="82" width="98" height="48" rx="18" style="fill:var(--il-coral,#FF7A3D)"/><path d="M250 128l4 16 -18 -16Z" style="fill:var(--il-coral,#FF7A3D)"/><text x="223" y="113" text-anchor="middle" font-size="19" font-weight="800" font-family="Plus Jakarta Sans, Noto Sans Thai, system-ui, sans-serif" style="fill:var(--il-paper,#FFFFFF)">สวัสดี</text><g transform="rotate(-12 45 133)"><g transform="translate(0 4)"><rect x="28" y="116" width="34" height="34" rx="9" style="fill:var(--il-amber-d,#D99A0B)"/></g><rect x="28" y="116" width="34" height="34" rx="9" style="fill:var(--il-amber,#FBBF24)"/><text x="45" y="140" text-anchor="middle" font-size="20" font-weight="800" font-family="Plus Jakarta Sans, Noto Sans Thai, system-ui, sans-serif" style="fill:var(--il-ink,#1F2340)">A</text></g><g transform="rotate(10 275 57)"><g transform="translate(0 4)"><rect x="258" y="40" width="34" height="34" rx="9" style="fill:var(--il-teal-d,#0E8C7E)"/></g><rect x="258" y="40" width="34" height="34" rx="9" style="fill:var(--il-teal,#14B8A6)"/><text x="275" y="63" text-anchor="middle" font-size="20" font-weight="800" font-family="Plus Jakarta Sans, Noto Sans Thai, system-ui, sans-serif" style="fill:var(--il-paper,#FFFFFF)">b</text></g><path d="M176 31Q177.62 38.38 185 40Q177.62 41.62 176 49Q174.38 41.62 167 40Q174.38 38.38 176 31Z" style="fill:var(--il-amber,#FBBF24)"/><path d="M36 68Q37.08 72.92 42 74Q37.08 75.08 36 80Q34.92 75.08 30 74Q34.92 72.92 36 68Z" style="fill:var(--il-lilac-d,#A5B4FC)"/><path d="M292 133Q293.26 138.74 299 140Q293.26 141.26 292 147Q290.74 141.26 285 140Q290.74 138.74 292 133Z" style="fill:var(--il-coral,#FF7A3D)"/></symbol>
<symbol id="il-placement" viewBox="0 0 320 240"><title>เข็มทิศและเส้นทางการเรียน</title><path d="M36 132C26 70 84 24 160 28s132 40 126 100-56 92-128 88S46 190 36 132Z" style="fill:var(--il-bg,#EEF0FF)"/><ellipse cx="118" cy="210" rx="70" ry="7" style="fill:var(--il-ground,rgba(31,35,64,0.08))"/><path d="M40 200C90 196 96 150 150 150S214 104 250 70" style="fill:none;stroke:var(--il-lilac-d,#A5B4FC);stroke-width:4;stroke-linecap:round;stroke-linejoin:round;stroke-dasharray:2 10"/><circle cx="40" cy="200" r="9" style="fill:var(--il-teal,#14B8A6)"/><circle cx="40" cy="200" r="3.5" style="fill:var(--il-paper,#FFFFFF)"/><circle cx="100" cy="176" r="9" style="fill:var(--il-indigo,#4F46E5)"/><circle cx="100" cy="176" r="3.5" style="fill:var(--il-paper,#FFFFFF)"/><circle cx="160" cy="148" r="9" style="fill:var(--il-coral,#FF7A3D)"/><circle cx="160" cy="148" r="3.5" style="fill:var(--il-paper,#FFFFFF)"/><circle cx="212" cy="116" r="9" style="fill:var(--il-amber,#FBBF24)"/><circle cx="212" cy="116" r="3.5" style="fill:var(--il-paper,#FFFFFF)"/><rect x="250" y="34" width="5" height="44" rx="2.5" style="fill:var(--il-ink,#1F2340)"/><path d="M255 36h30l-8 10 8 10h-30Z" style="fill:var(--il-coral,#FF7A3D)"/><g transform="translate(0 6)"><circle cx="118" cy="110" r="56" style="fill:var(--il-paper-d,#DDE1EE)"/></g><circle cx="118" cy="110" r="56" style="fill:var(--il-paper,#FFFFFF)"/><circle cx="118" cy="110" r="46" style="fill:none;stroke:var(--il-lilac,#C7D2FE);stroke-width:6;stroke-linecap:round;stroke-linejoin:round"/><rect x="116" y="68" width="4" height="10" rx="2" transform="rotate(0 118 110)" style="fill:var(--il-lilac-d,#A5B4FC)"/><rect x="116" y="68" width="4" height="6" rx="2" transform="rotate(45 118 110)" style="fill:var(--il-lilac-d,#A5B4FC)"/><rect x="116" y="68" width="4" height="10" rx="2" transform="rotate(90 118 110)" style="fill:var(--il-lilac-d,#A5B4FC)"/><rect x="116" y="68" width="4" height="6" rx="2" transform="rotate(135 118 110)" style="fill:var(--il-lilac-d,#A5B4FC)"/><rect x="116" y="68" width="4" height="10" rx="2" transform="rotate(180 118 110)" style="fill:var(--il-lilac-d,#A5B4FC)"/><rect x="116" y="68" width="4" height="6" rx="2" transform="rotate(225 118 110)" style="fill:var(--il-lilac-d,#A5B4FC)"/><rect x="116" y="68" width="4" height="10" rx="2" transform="rotate(270 118 110)" style="fill:var(--il-lilac-d,#A5B4FC)"/><rect x="116" y="68" width="4" height="6" rx="2" transform="rotate(315 118 110)" style="fill:var(--il-lilac-d,#A5B4FC)"/><path d="M118 76L130 110H106Z" style="fill:var(--il-coral,#FF7A3D)"/><path d="M118 144L130 110H106Z" style="fill:var(--il-indigo,#4F46E5)"/><circle cx="118" cy="110" r="6" style="fill:var(--il-paper,#FFFFFF)"/><path d="M196 189Q197.26 194.74 203 196Q197.26 197.26 196 203Q194.74 197.26 189 196Q194.74 194.74 196 189Z" style="fill:var(--il-teal,#14B8A6)"/><path d="M56 56Q57.44 62.56 64 64Q57.44 65.44 56 72Q54.56 65.44 48 64Q54.56 62.56 56 56Z" style="fill:var(--il-amber,#FBBF24)"/></symbol>
<symbol id="il-vocab" viewBox="0 0 320 240"><title>การ์ดคำศัพท์และกองหนังสือ</title><path d="M40 120C30 60 90 22 160 26s128 36 124 98-60 96-130 92S48 176 40 120Z" style="fill:var(--il-bg,#EEF0FF)"/><ellipse cx="156" cy="212" rx="96" ry="7" style="fill:var(--il-ground,rgba(31,35,64,0.08))"/><g transform="rotate(-14 128.0 136.0)"><g transform="translate(0 5)"><rect x="76" y="70" width="104" height="132" rx="14" style="fill:var(--il-lilac-d,#A5B4FC)"/></g><rect x="76" y="70" width="104" height="132" rx="14" style="fill:var(--il-lilac,#C7D2FE)"/></g><g transform="rotate(12 212.0 132.0)"><g transform="translate(0 5)"><rect x="160" y="66" width="104" height="132" rx="14" style="fill:var(--il-coral-d,#D9541C)"/></g><rect x="160" y="66" width="104" height="132" rx="14" style="fill:var(--il-coral,#FF7A3D)"/></g><g><g transform="translate(0 5)"><rect x="108" y="52" width="112" height="146" rx="14" style="fill:var(--il-paper-d,#DDE1EE)"/></g><rect x="108" y="52" width="112" height="146" rx="14" style="fill:var(--il-paper,#FFFFFF)"/><text x="164" y="116" text-anchor="middle" font-size="40" font-weight="800" font-family="Plus Jakarta Sans, Noto Sans Thai, system-ui, sans-serif" style="fill:var(--il-indigo,#4F46E5)">Aa</text><rect x="130" y="136" width="68" height="4" rx="2.0" style="fill:var(--il-line,#E3E6F0)"/><rect x="130" y="147" width="68" height="4" rx="2.0" style="fill:var(--il-line,#E3E6F0)"/><rect x="130" y="158" width="40.8" height="4" rx="2.0" style="fill:var(--il-line,#E3E6F0)"/></g><g transform="translate(0 4)"><rect x="200.0" y="190" width="80" height="14" rx="4" style="fill:var(--il-teal-d,#0E8C7E)"/></g><rect x="200.0" y="190" width="80" height="14" rx="4" style="fill:var(--il-teal,#14B8A6)"/><g transform="translate(0 4)"><rect x="207.0" y="174" width="72" height="14" rx="4" style="fill:var(--il-amber-d,#D99A0B)"/></g><rect x="207.0" y="174" width="72" height="14" rx="4" style="fill:var(--il-amber,#FBBF24)"/><g transform="translate(0 4)"><rect x="214.0" y="158" width="64" height="14" rx="4" style="fill:var(--il-indigo-d,#3730A3)"/></g><rect x="214.0" y="158" width="64" height="14" rx="4" style="fill:var(--il-indigo,#4F46E5)"/><path d="M76 48Q77.44 54.56 84 56Q77.44 57.44 76 64Q74.56 57.44 68 56Q74.56 54.56 76 48Z" style="fill:var(--il-amber,#FBBF24)"/><path d="M282 58Q283.08 62.92 288 64Q283.08 65.08 282 70Q280.92 65.08 276 64Q280.92 62.92 282 58Z" style="fill:var(--il-teal,#14B8A6)"/></symbol>
<symbol id="il-grammar" viewBox="0 0 320 240"><title>บล็อกคำที่ต่อกันเป็นประโยค</title><path d="M44 126C34 64 92 28 162 30s124 40 120 98-58 92-126 90S52 180 44 126Z" style="fill:var(--il-bg,#EEF0FF)"/><ellipse cx="160" cy="206" rx="120" ry="7" style="fill:var(--il-ground,rgba(31,35,64,0.08))"/><rect x="40" y="186" width="240" height="12" rx="6" style="fill:var(--il-paper-d,#DDE1EE)"/><g transform="translate(0 5)"><rect x="44" y="140" width="52" height="40" rx="10" style="fill:var(--il-indigo-d,#3730A3)"/></g><rect x="44" y="140" width="52" height="40" rx="10" style="fill:var(--il-indigo,#4F46E5)"/><text x="70.0" y="166" text-anchor="middle" font-size="16" font-weight="800" font-family="Plus Jakarta Sans, Noto Sans Thai, system-ui, sans-serif" style="fill:var(--il-paper,#FFFFFF)">I</text><g transform="translate(0 5)"><rect x="102" y="140" width="72" height="40" rx="10" style="fill:var(--il-teal-d,#0E8C7E)"/></g><rect x="102" y="140" width="72" height="40" rx="10" style="fill:var(--il-teal,#14B8A6)"/><text x="138.0" y="166" text-anchor="middle" font-size="16" font-weight="800" font-family="Plus Jakarta Sans, Noto Sans Thai, system-ui, sans-serif" style="fill:var(--il-paper,#FFFFFF)">read</text><g transform="translate(0 5)"><rect x="180" y="140" width="84" height="40" rx="10" style="fill:var(--il-coral-d,#D9541C)"/></g><rect x="180" y="140" width="84" height="40" rx="10" style="fill:var(--il-coral,#FF7A3D)"/><text x="222.0" y="166" text-anchor="middle" font-size="16" font-weight="800" font-family="Plus Jakarta Sans, Noto Sans Thai, system-ui, sans-serif" style="fill:var(--il-paper,#FFFFFF)">books</text><g transform="rotate(-8 196.0 82)"><g transform="translate(0 5)"><rect x="140" y="62" width="112" height="40" rx="10" style="fill:var(--il-amber-d,#D99A0B)"/></g><rect x="140" y="62" width="112" height="40" rx="10" style="fill:var(--il-amber,#FBBF24)"/><text x="196.0" y="88" text-anchor="middle" font-size="16" font-weight="800" font-family="Plus Jakarta Sans, Noto Sans Thai, system-ui, sans-serif" style="fill:var(--il-paper,#FFFFFF)">every day</text></g><path d="M150 112v14M196 106v14M242 100v14" style="fill:none;stroke:var(--il-lilac-d,#A5B4FC);stroke-width:3.5;stroke-linecap:round;stroke-linejoin:round;stroke-dasharray:3 7"/><text x="270" y="168" text-anchor="middle" font-size="40" font-weight="800" font-family="Plus Jakarta Sans, Noto Sans Thai, system-ui, sans-serif" style="fill:var(--il-ink,#1F2340)">.</text><path d="M70 71Q71.62 78.38 79 80Q71.62 81.62 70 89Q68.38 81.62 61 80Q68.38 78.38 70 71Z" style="fill:var(--il-lilac-d,#A5B4FC)"/><path d="M278 47Q279.26 52.74 285 54Q279.26 55.26 278 61Q276.74 55.26 271 54Q276.74 52.74 278 47Z" style="fill:var(--il-amber,#FBBF24)"/></symbol>
<symbol id="il-review" viewBox="0 0 320 240"><title>การ์ดทบทวนในวงจรความจำ</title><path d="M40 120C30 60 90 22 160 26s128 36 124 98-60 96-130 92S48 176 40 120Z" style="fill:var(--il-bg,#EEF0FF)"/><ellipse cx="160" cy="212" rx="90" ry="7" style="fill:var(--il-ground,rgba(31,35,64,0.08))"/><path d="M84 120a76 76 0 0 1 140-40" style="fill:none;stroke:var(--il-lilac,#C7D2FE);stroke-width:14;stroke-linecap:round;stroke-linejoin:round"/><path d="M236 120a76 76 0 0 1-140 40" style="fill:none;stroke:var(--il-lilac,#C7D2FE);stroke-width:14;stroke-linecap:round;stroke-linejoin:round"/><path d="M214 58l18 24-30 4Z" style="fill:var(--il-lilac-d,#A5B4FC)"/><path d="M106 182l-18-24 30-4Z" style="fill:var(--il-lilac-d,#A5B4FC)"/><g transform="rotate(-8 164.0 140.0)"><g transform="translate(0 5)"><rect x="118" y="84" width="92" height="112" rx="14" style="fill:var(--il-lilac-d,#A5B4FC)"/></g><rect x="118" y="84" width="92" height="112" rx="14" style="fill:var(--il-lilac,#C7D2FE)"/></g><g><g transform="translate(0 5)"><rect x="116" y="78" width="92" height="112" rx="14" style="fill:var(--il-paper-d,#DDE1EE)"/></g><rect x="116" y="78" width="92" height="112" rx="14" style="fill:var(--il-paper,#FFFFFF)"/><rect x="132" y="104" width="60" height="4" rx="2.0" style="fill:var(--il-line,#E3E6F0)"/><rect x="132" y="115" width="60" height="4" rx="2.0" style="fill:var(--il-line,#E3E6F0)"/><rect x="132" y="126" width="36.0" height="4" rx="2.0" style="fill:var(--il-line,#E3E6F0)"/></g><circle cx="198" cy="172" r="20" style="fill:var(--il-teal,#14B8A6)"/><path d="M189.8 171l4.5 4.5 9.9-9.9" style="fill:none;stroke:var(--il-paper,#FFFFFF);stroke-width:4;stroke-linecap:round;stroke-linejoin:round"/><path d="M272 152Q273.44 158.56 280 160Q273.44 161.44 272 168Q270.56 161.44 264 160Q270.56 158.56 272 152Z" style="fill:var(--il-amber,#FBBF24)"/><path d="M54 66Q55.08 70.92 60 72Q55.08 73.08 54 78Q52.92 73.08 48 72Q52.92 70.92 54 66Z" style="fill:var(--il-coral,#FF7A3D)"/></symbol>
<symbol id="il-battle" viewBox="0 0 320 240"><title>โล่สองใบประชันกัน</title><path d="M36 130C26 66 88 26 160 28s134 42 128 102-62 90-130 86S46 186 36 130Z" style="fill:var(--il-bg,#EEF0FF)"/><ellipse cx="160" cy="212" rx="110" ry="7" style="fill:var(--il-ground,rgba(31,35,64,0.08))"/><g transform="rotate(-10 108 110)"><g transform="translate(0 6)"><path d="M108 54L152.0 68.0V112.0C152.0 140.0 130.0 158.0 108 166.0C86.0 158.0 64.0 140.0 64.0 112.0V68.0Z" style="fill:var(--il-indigo-d,#3730A3)"/></g><path d="M108 54L152.0 68.0V112.0C152.0 140.0 130.0 158.0 108 166.0C86.0 158.0 64.0 140.0 64.0 112.0V68.0Z" style="fill:var(--il-indigo,#4F46E5)"/><path d="M108 82v52M90 100h36" style="fill:none;stroke:var(--il-paper,#FFFFFF);stroke-width:6;stroke-linecap:round;stroke-linejoin:round"/></g><g transform="rotate(10 212 110)"><g transform="translate(0 6)"><path d="M212 54L256.0 68.0V112.0C256.0 140.0 234.0 158.0 212 166.0C190.0 158.0 168.0 140.0 168.0 112.0V68.0Z" style="fill:var(--il-coral-d,#D9541C)"/></g><path d="M212 54L256.0 68.0V112.0C256.0 140.0 234.0 158.0 212 166.0C190.0 158.0 168.0 140.0 168.0 112.0V68.0Z" style="fill:var(--il-coral,#FF7A3D)"/><circle cx="212" cy="110" r="16" style="fill:none;stroke:var(--il-paper,#FFFFFF);stroke-width:6;stroke-linecap:round;stroke-linejoin:round"/></g><g transform="translate(0 4)"><circle cx="160" cy="118" r="26" style="fill:var(--il-amber-d,#D99A0B)"/></g><circle cx="160" cy="118" r="26" style="fill:var(--il-amber,#FBBF24)"/><text x="160" y="127" text-anchor="middle" font-size="20" font-weight="800" font-family="Plus Jakarta Sans, Noto Sans Thai, system-ui, sans-serif" style="fill:var(--il-ink,#1F2340)">VS</text><path d="M160 60v-14M134 70l-8-10M186 70l8-10" style="fill:none;stroke:var(--il-amber-d,#D99A0B);stroke-width:4;stroke-linecap:round;stroke-linejoin:round"/><path d="M48 62Q49.44 68.56 56 70Q49.44 71.44 48 78Q46.56 71.44 40 70Q46.56 68.56 48 62Z" style="fill:var(--il-teal,#14B8A6)"/><path d="M276 57Q277.26 62.74 283 64Q277.26 65.26 276 71Q274.74 65.26 269 64Q274.74 62.74 276 57Z" style="fill:var(--il-amber,#FBBF24)"/></symbol>
<symbol id="il-leaderboard" viewBox="0 0 320 240"><title>แท่นอันดับ 1 2 3</title><path d="M40 120C30 60 90 22 160 26s128 36 124 98-60 96-130 92S48 176 40 120Z" style="fill:var(--il-bg,#EEF0FF)"/><ellipse cx="160" cy="210" rx="110" ry="7" style="fill:var(--il-ground,rgba(31,35,64,0.08))"/><g transform="translate(0 5)"><rect x="64" y="132" width="64" height="72" rx="10" style="fill:var(--il-lilac-d,#A5B4FC)"/></g><rect x="64" y="132" width="64" height="72" rx="10" style="fill:var(--il-lilac,#C7D2FE)"/><text x="96" y="178" text-anchor="middle" font-size="26" font-weight="800" font-family="Plus Jakarta Sans, Noto Sans Thai, system-ui, sans-serif" style="fill:var(--il-indigo,#4F46E5)">2</text><g transform="translate(0 5)"><rect x="192" y="152" width="64" height="52" rx="10" style="fill:var(--il-coral-d,#D9541C)"/></g><rect x="192" y="152" width="64" height="52" rx="10" style="fill:var(--il-coral,#FF7A3D)"/><text x="224" y="186" text-anchor="middle" font-size="24" font-weight="800" font-family="Plus Jakarta Sans, Noto Sans Thai, system-ui, sans-serif" style="fill:var(--il-paper,#FFFFFF)">3</text><g transform="translate(0 5)"><rect x="128" y="104" width="64" height="100" rx="10" style="fill:var(--il-indigo-d,#3730A3)"/></g><rect x="128" y="104" width="64" height="100" rx="10" style="fill:var(--il-indigo,#4F46E5)"/><text x="160" y="160" text-anchor="middle" font-size="32" font-weight="800" font-family="Plus Jakarta Sans, Noto Sans Thai, system-ui, sans-serif" style="fill:var(--il-paper,#FFFFFF)">1</text><path d="M148 58l-10 30h14l8-14M172 58l10 30h-14l-8-14" style="fill:var(--il-coral-d,#D9541C)"/><g transform="translate(0 4)"><circle cx="160" cy="64" r="22" style="fill:var(--il-amber-d,#D99A0B)"/></g><circle cx="160" cy="64" r="22" style="fill:var(--il-amber,#FBBF24)"/><circle cx="160" cy="64" r="14" style="fill:none;stroke:var(--il-amber-d,#D99A0B);stroke-width:3.5;stroke-linecap:round;stroke-linejoin:round"/><ellipse cx="126" cy="74" rx="5" ry="9" transform="rotate(30 126 74)" style="fill:var(--il-teal,#14B8A6)"/><ellipse cx="117" cy="62" rx="5" ry="9" transform="rotate(30 117 62)" style="fill:var(--il-teal,#14B8A6)"/><ellipse cx="108" cy="50" rx="5" ry="9" transform="rotate(30 108 50)" style="fill:var(--il-teal,#14B8A6)"/><ellipse cx="194" cy="74" rx="5" ry="9" transform="rotate(-30 194 74)" style="fill:var(--il-teal,#14B8A6)"/><ellipse cx="203" cy="62" rx="5" ry="9" transform="rotate(-30 203 62)" style="fill:var(--il-teal,#14B8A6)"/><ellipse cx="212" cy="50" rx="5" ry="9" transform="rotate(-30 212 50)" style="fill:var(--il-teal,#14B8A6)"/><path d="M56 85Q57.26 90.74 63 92Q57.26 93.26 56 99Q54.74 93.26 49 92Q54.74 90.74 56 85Z" style="fill:var(--il-amber,#FBBF24)"/><path d="M270 102Q271.44 108.56 278 110Q271.44 111.44 270 118Q268.56 111.44 262 110Q268.56 108.56 270 102Z" style="fill:var(--il-teal,#14B8A6)"/></symbol>
<symbol id="il-success" viewBox="0 0 320 240"><title>เครื่องหมายสำเร็จ</title><path d="M40 120C30 60 90 22 160 26s128 36 124 98-60 96-130 92S48 176 40 120Z" style="fill:var(--il-bg,#EEF0FF)"/><ellipse cx="160" cy="208" rx="70" ry="7" style="fill:var(--il-ground,rgba(31,35,64,0.08))"/><rect x="64" y="70" width="14" height="6" rx="3" transform="rotate(20 64 70)" style="fill:var(--il-coral,#FF7A3D)"/><rect x="250" y="62" width="14" height="6" rx="3" transform="rotate(-30 250 62)" style="fill:var(--il-teal,#14B8A6)"/><rect x="80" y="170" width="14" height="6" rx="3" transform="rotate(40 80 170)" style="fill:var(--il-amber,#FBBF24)"/><rect x="246" y="168" width="14" height="6" rx="3" transform="rotate(-16 246 168)" style="fill:var(--il-indigo,#4F46E5)"/><rect x="110" y="44" width="14" height="6" rx="3" transform="rotate(60 110 44)" style="fill:var(--il-lilac-d,#A5B4FC)"/><rect x="214" y="40" width="14" height="6" rx="3" transform="rotate(12 214 40)" style="fill:var(--il-amber,#FBBF24)"/><circle cx="48" cy="120" r="5" style="fill:var(--il-indigo,#4F46E5)"/><circle cx="276" cy="118" r="5" style="fill:var(--il-coral,#FF7A3D)"/><circle cx="150" cy="32" r="5" style="fill:var(--il-teal,#14B8A6)"/><circle cx="160" cy="116" r="66" style="fill:var(--il-teal,#14B8A6);opacity:.16"/><g transform="translate(0 6)"><circle cx="160" cy="116" r="48" style="fill:var(--il-teal-d,#0E8C7E)"/></g><circle cx="160" cy="116" r="48" style="fill:var(--il-teal,#14B8A6)"/><path d="M142.0 114l10.0 10.0 22.0-22.0" style="fill:none;stroke:var(--il-paper,#FFFFFF);stroke-width:9;stroke-linecap:round;stroke-linejoin:round"/></symbol>
<symbol id="il-empty-review" viewBox="0 0 320 240"><title>ทบทวนครบแล้ว</title><path d="M40 126C32 66 92 30 162 32s124 36 120 94-58 92-126 90S48 182 40 126Z" style="fill:var(--il-bg,#EEF0FF)"/><ellipse cx="160" cy="206" rx="80" ry="7" style="fill:var(--il-ground,rgba(31,35,64,0.08))"/><g><g transform="translate(0 5)"><rect x="104" y="120" width="112" height="70" rx="12" style="fill:var(--il-lilac-d,#A5B4FC)"/></g><rect x="104" y="120" width="112" height="70" rx="12" style="fill:var(--il-lilac,#C7D2FE)"/></g><g><g transform="translate(0 5)"><rect x="106" y="104" width="112" height="70" rx="12" style="fill:var(--il-lilac-d,#A5B4FC)"/></g><rect x="106" y="104" width="112" height="70" rx="12" style="fill:var(--il-lilac,#C7D2FE)"/></g><g><g transform="translate(0 5)"><rect x="108" y="88" width="112" height="70" rx="12" style="fill:var(--il-paper-d,#DDE1EE)"/></g><rect x="108" y="88" width="112" height="70" rx="12" style="fill:var(--il-paper,#FFFFFF)"/></g><rect x="124" y="106" width="60" height="4" rx="2.0" style="fill:var(--il-line,#E3E6F0)"/><rect x="124" y="118" width="36.0" height="4" rx="2.0" style="fill:var(--il-line,#E3E6F0)"/><circle cx="214" cy="96" r="22" style="fill:var(--il-teal,#14B8A6)"/><path d="M205.0 95l5.0 5.0 11.0-11.0" style="fill:none;stroke:var(--il-paper,#FFFFFF);stroke-width:4;stroke-linecap:round;stroke-linejoin:round"/><path d="M86 46a22 22 0 1 0 26 30a18 18 0 1 1-26-30Z" style="fill:var(--il-amber,#FBBF24)"/><path d="M252 45Q253.26 50.74 259 52Q253.26 53.26 252 59Q250.74 53.26 245 52Q250.74 50.74 252 45Z" style="fill:var(--il-lilac-d,#A5B4FC)"/><path d="M64 115Q64.9 119.1 69 120Q64.9 120.9 64 125Q63.1 120.9 59 120Q63.1 119.1 64 115Z" style="fill:var(--il-lilac-d,#A5B4FC)"/></symbol>
<symbol id="il-empty-friends" viewBox="0 0 320 240"><title>เครือข่ายเพื่อน</title><path d="M40 120C30 60 90 22 160 26s128 36 124 98-60 96-130 92S48 176 40 120Z" style="fill:var(--il-bg,#EEF0FF)"/><ellipse cx="160" cy="206" rx="96" ry="7" style="fill:var(--il-ground,rgba(31,35,64,0.08))"/><path d="M92 150L160 92 228 150M92 150H228" style="fill:none;stroke:var(--il-lilac-d,#A5B4FC);stroke-width:4;stroke-linecap:round;stroke-linejoin:round"/><g transform="translate(0 4)"><circle cx="160" cy="92" r="28" style="fill:var(--il-indigo-d,#3730A3)"/></g><circle cx="160" cy="92" r="28" style="fill:var(--il-indigo,#4F46E5)"/><circle cx="160" cy="85.84" r="9.520000000000001" style="fill:var(--il-paper,#FFFFFF)"/><path d="M144.32 107.68a15.680000000000001 12.88 0 0 1 31.360000000000003 0Z" style="fill:var(--il-paper,#FFFFFF)"/><g transform="translate(0 4)"><circle cx="92" cy="150" r="22" style="fill:var(--il-teal-d,#0E8C7E)"/></g><circle cx="92" cy="150" r="22" style="fill:var(--il-teal,#14B8A6)"/><circle cx="92" cy="145.16" r="7.48" style="fill:var(--il-paper,#FFFFFF)"/><path d="M79.68 162.32a12.32 10.120000000000001 0 0 1 24.64 0Z" style="fill:var(--il-paper,#FFFFFF)"/><g transform="translate(0 4)"><circle cx="228" cy="150" r="22" style="fill:var(--il-coral-d,#D9541C)"/></g><circle cx="228" cy="150" r="22" style="fill:var(--il-coral,#FF7A3D)"/><circle cx="228" cy="145.16" r="7.48" style="fill:var(--il-paper,#FFFFFF)"/><path d="M215.68 162.32a12.32 10.120000000000001 0 0 1 24.64 0Z" style="fill:var(--il-paper,#FFFFFF)"/><circle cx="160" cy="178" r="20" style="fill:none;stroke:var(--il-lilac-d,#A5B4FC);stroke-width:3.5;stroke-linecap:round;stroke-linejoin:round;stroke-dasharray:5 6"/><path d="M160 170v16M152 178h16" style="fill:none;stroke:var(--il-lilac-d,#A5B4FC);stroke-width:3.5;stroke-linecap:round;stroke-linejoin:round"/><path d="M260 62Q261.44 68.56 268 70Q261.44 71.44 260 78Q258.56 71.44 252 70Q258.56 68.56 260 62Z" style="fill:var(--il-amber,#FBBF24)"/><path d="M60 80Q61.08 84.92 66 86Q61.08 87.08 60 92Q58.92 87.08 54 86Q58.92 84.92 60 80Z" style="fill:var(--il-lilac-d,#A5B4FC)"/></symbol>
<symbol id="il-empty-room" viewBox="0 0 320 240"><title>สนามแข่งที่ยังว่าง</title><path d="M36 128C28 66 90 30 160 32s132 38 126 98-60 90-128 88S44 186 36 128Z" style="fill:var(--il-bg,#EEF0FF)"/><ellipse cx="160" cy="166" rx="118" ry="36" style="fill:var(--il-lilac-d,#A5B4FC)"/><ellipse cx="160" cy="158" rx="118" ry="36" style="fill:var(--il-lilac,#C7D2FE)"/><ellipse cx="160" cy="158" rx="86" ry="22" style="fill:none;stroke:var(--il-paper,#FFFFFF);stroke-width:3;stroke-linecap:round;stroke-linejoin:round;stroke-dasharray:8 8"/><circle cx="110" cy="150" r="16" style="fill:none;stroke:var(--il-indigo,#4F46E5);stroke-width:3.5;stroke-linecap:round;stroke-linejoin:round;stroke-dasharray:4 6"/><circle cx="210" cy="150" r="16" style="fill:none;stroke:var(--il-indigo,#4F46E5);stroke-width:3.5;stroke-linecap:round;stroke-linejoin:round;stroke-dasharray:4 6"/><rect x="44" y="74" width="4" height="84" rx="2" style="fill:var(--il-ink,#1F2340)"/><path d="M48 76h26l-6 9 6 9h-26Z" style="fill:var(--il-coral,#FF7A3D)"/><rect x="272" y="74" width="4" height="84" rx="2" style="fill:var(--il-ink,#1F2340)"/><path d="M276 76h26l-6 9 6 9h-26Z" style="fill:var(--il-teal,#14B8A6)"/><path d="M160 61Q161.62 68.38 169 70Q161.62 71.62 160 79Q158.38 71.62 151 70Q158.38 68.38 160 61Z" style="fill:var(--il-amber,#FBBF24)"/></symbol>
<symbol id="il-empty-search" viewBox="0 0 320 240"><title>แว่นขยายบนการ์ดว่าง</title><path d="M40 120C30 60 90 22 160 26s128 36 124 98-60 96-130 92S48 176 40 120Z" style="fill:var(--il-bg,#EEF0FF)"/><ellipse cx="150" cy="208" rx="84" ry="7" style="fill:var(--il-ground,rgba(31,35,64,0.08))"/><g transform="rotate(-6 148.0 130.0)"><g transform="translate(0 5)"><rect x="84" y="60" width="128" height="140" rx="14" style="fill:var(--il-paper-d,#DDE1EE)"/></g><rect x="84" y="60" width="128" height="140" rx="14" style="fill:var(--il-paper,#FFFFFF)"/><rect x="104" y="90" width="84" height="4" rx="2.0" style="fill:var(--il-line,#E3E6F0)"/><rect x="104" y="104" width="84" height="4" rx="2.0" style="fill:var(--il-line,#E3E6F0)"/><rect x="104" y="118" width="84" height="4" rx="2.0" style="fill:var(--il-line,#E3E6F0)"/><rect x="104" y="132" width="50.4" height="4" rx="2.0" style="fill:var(--il-line,#E3E6F0)"/></g><circle cx="198" cy="128" r="38" style="fill:var(--il-paper,#FFFFFF);opacity:.7"/><circle cx="198" cy="128" r="38" style="fill:none;stroke:var(--il-indigo,#4F46E5);stroke-width:10;stroke-linecap:round;stroke-linejoin:round"/><path d="M226 158l28 28" style="fill:none;stroke:var(--il-indigo-d,#3730A3);stroke-width:14;stroke-linecap:round;stroke-linejoin:round"/><circle cx="186" cy="128" r="3.5" style="fill:var(--il-lilac-d,#A5B4FC)"/><circle cx="198" cy="128" r="3.5" style="fill:var(--il-lilac-d,#A5B4FC)"/><circle cx="210" cy="128" r="3.5" style="fill:var(--il-lilac-d,#A5B4FC)"/><path d="M262 69Q263.26 74.74 269 76Q263.26 77.26 262 83Q260.74 77.26 255 76Q260.74 74.74 262 69Z" style="fill:var(--il-coral,#FF7A3D)"/><path d="M64 160Q65.08 164.92 70 166Q65.08 167.08 64 172Q62.92 167.08 58 166Q62.92 164.92 64 160Z" style="fill:var(--il-amber,#FBBF24)"/></symbol>
<symbol id="il-offline" viewBox="0 0 320 240"><title>ไม่มีการเชื่อมต่อ</title><path d="M40 120C30 60 90 22 160 26s128 36 124 98-60 96-130 92S48 176 40 120Z" style="fill:var(--il-bg,#EEF0FF)"/><ellipse cx="160" cy="200" rx="80" ry="7" style="fill:var(--il-ground,rgba(31,35,64,0.08))"/><path d="M96 168a34 34 0 0 1 8-66 48 48 0 0 1 92-8 38 38 0 0 1 28 74Z" style="fill:var(--il-paper-d,#DDE1EE)"/><path d="M96 160a34 34 0 0 1 8-66 48 48 0 0 1 92-8 38 38 0 0 1 28 74Z" style="fill:var(--il-paper,#FFFFFF)"/><path d="M110 60L214 184" style="fill:none;stroke:var(--il-coral,#FF7A3D);stroke-width:10;stroke-linecap:round;stroke-linejoin:round"/></symbol>
<symbol id="il-login" viewBox="0 0 320 240"><title>บันไดระดับ A1 ถึง C1</title><g transform="translate(0 6)"><rect x="20" y="180" width="52" height="40" rx="10" style="fill:var(--il-teal-d,#0E8C7E)"/></g><rect x="20" y="180" width="52" height="40" rx="10" style="fill:var(--il-teal,#14B8A6)"/><text x="46" y="206" text-anchor="middle" font-size="15" font-weight="800" font-family="Plus Jakarta Sans, Noto Sans Thai, system-ui, sans-serif" style="fill:var(--il-paper,#FFFFFF)">A1</text><g transform="translate(0 6)"><rect x="78" y="150" width="52" height="70" rx="10" style="fill:var(--il-indigo-d,#3730A3)"/></g><rect x="78" y="150" width="52" height="70" rx="10" style="fill:var(--il-indigo,#4F46E5)"/><text x="104" y="176" text-anchor="middle" font-size="15" font-weight="800" font-family="Plus Jakarta Sans, Noto Sans Thai, system-ui, sans-serif" style="fill:var(--il-paper,#FFFFFF)">A2</text><g transform="translate(0 6)"><rect x="136" y="120" width="52" height="100" rx="10" style="fill:var(--il-lilac-d,#A5B4FC)"/></g><rect x="136" y="120" width="52" height="100" rx="10" style="fill:var(--il-lilac,#C7D2FE)"/><text x="162" y="146" text-anchor="middle" font-size="15" font-weight="800" font-family="Plus Jakarta Sans, Noto Sans Thai, system-ui, sans-serif" style="fill:var(--il-ink,#1F2340)">B1</text><g transform="translate(0 6)"><rect x="194" y="90" width="52" height="130" rx="10" style="fill:var(--il-coral-d,#D9541C)"/></g><rect x="194" y="90" width="52" height="130" rx="10" style="fill:var(--il-coral,#FF7A3D)"/><text x="220" y="116" text-anchor="middle" font-size="15" font-weight="800" font-family="Plus Jakarta Sans, Noto Sans Thai, system-ui, sans-serif" style="fill:var(--il-paper,#FFFFFF)">B2</text><g transform="translate(0 6)"><rect x="252" y="60" width="52" height="160" rx="10" style="fill:var(--il-amber-d,#D99A0B)"/></g><rect x="252" y="60" width="52" height="160" rx="10" style="fill:var(--il-amber,#FBBF24)"/><text x="278" y="86" text-anchor="middle" font-size="15" font-weight="800" font-family="Plus Jakarta Sans, Noto Sans Thai, system-ui, sans-serif" style="fill:var(--il-ink,#1F2340)">C1</text><rect x="270" y="14" width="4" height="46" rx="2" style="fill:var(--il-paper,#FFFFFF)"/><path d="M274 16h28l-7 10 7 10h-28Z" style="fill:var(--il-coral,#FF7A3D)"/><g transform="translate(0 5)"><rect x="28" y="52" width="92" height="46" rx="18" style="fill:var(--il-paper-d,#DDE1EE)"/></g><rect x="28" y="52" width="92" height="46" rx="18" style="fill:var(--il-paper,#FFFFFF)"/><path d="M50 96l-4 16 18 -16Z" style="fill:var(--il-paper,#FFFFFF)"/><text x="74" y="82" text-anchor="middle" font-size="22" font-weight="800" font-family="Plus Jakarta Sans, Noto Sans Thai, system-ui, sans-serif" style="fill:var(--il-indigo,#4F46E5)">Aa</text><path d="M150 54Q151.44 60.56 158 62Q151.44 63.44 150 70Q148.56 63.44 142 62Q148.56 60.56 150 54Z" style="fill:var(--il-amber,#FBBF24)"/><path d="M220 28Q221.08 32.92 226 34Q221.08 35.08 220 40Q218.92 35.08 214 34Q218.92 32.92 220 28Z" style="fill:var(--il-paper,#FFFFFF)"/></symbol>
</svg>
